#!OML:ASF I:\Actors\actors\Patient Classification 1\Patient 1\Session 1\Subject1.ASF
:FULLY-SPECIFIED
:DEGREES
1324
root 0.592361 17.7125 8.8976 23.0548 4.15918 -9.2594
lowerback 12.3254 4.32996 12.2351
upperback -4.61583 7.71268 -2.13739
thorax -10.1394 2.80357 -10.7624
lowerneck -16.0948 -13.326 -10.294
upperneck 5.77891 -18.1327 18.8506
head 7.18107 -7.83974 5.40896
rclavicle 1.1122e-013 -5.96354e-015
rhumerus 51.1386 13.2464 -29.8045
rradius 32.7859
rwrist 25.4111
rhand -0.797172 -24.7354
rfingers 7.12502
rthumb 24.8266 -53.1436
lclavicle 1.1122e-013 -5.96354e-015
lhumerus -23.7548 -76.5195 85.4894
lradius 107.088
lwrist 21.5538
lhand -20.2069 -19.5519
lfingers 7.12502
lthumb 6.14012 10.3391
rfemur -17.5838 33.382 15.6275
rtibia 0.517528
rfoot -20.4814 -42.176
rtoes 18.3497
lfemur -17.9372 -57.6404 8.11801
ltibia -6.10023
lfoot -46.531 62.2851
ltoes 28.6757
1325
root 0.588243 17.7111 8.8958 23.0172 4.06847 -9.2789
lowerback 12.3132 4.29415 12.2204
upperback -4.60424 7.66083 -2.12295
thorax -10.1363 2.78084 -10.7281
lowerneck -16.1566 -13.2547 -10.2502
upperneck 5.92193 -18.0575 18.8158
head 7.21816 -7.79466 5.40089
rclavicle -3.08116e-015 5.98342e-014
rhumerus 51.3935 14.1055 -28.8083
rradius 33.5953
rwrist 25.1755
rhand -1.77462 -24.5944
rfingers 7.12502
rthumb 23.8895 -53.1286
lclavicle -3.08116e-015 5.98342e-014
lhumerus -23.642 -76.4544 85.3554
lradius 107.067
lwrist 21.5878
lhand -20.3752 -19.5423
lfingers 7.12502
lthumb 5.9776 10.3534
rfemur -17.5665 33.3572 15.6764
rtibia 0.551939
rfoot -20.4259 -42.0623
rtoes 18.4687
lfemur -17.7386 -57.5947 7.96732
ltibia -6.12601
lfoot -46.6538 62.2464
ltoes 28.7782
1326
root 0.584777 17.7103 8.89439 22.9602 4.02801 -9.28581
lowerback 12.3338 4.25391 12.2138
upperback -4.58592 7.6099 -2.09182
thorax -10.1462 2.75745 -10.6835
lowerneck -16.2284 -13.1937 -10.2172
upperneck 6.07476 -17.9982 18.8009
head 7.26591 -7.75486 5.39743
rclavicle -7.63333e-014 5.10877e-014
rhumerus 51.6496 14.865 -27.9256
rradius 34.2618
rwrist 25.2879
rhand -2.75988 -24.4598
rfingers 7.12502
rthumb 22.9444 -53.1144
lclavicle -7.63333e-014 5.10877e-014
lhumerus -23.5261 -76.4237 85.2872
lradius 107.058
lwrist 21.513
lhand -20.5209 -19.459
lfingers 7.12502
lthumb 5.83696 10.4406
rfemur -17.5049 33.3474 15.7363
rtibia 0.565434
rfoot -20.3708 -42.0213
rtoes 18.5429
lfemur -17.5733 -57.6079 7.82692
ltibia -6.11094
lfoot -46.8303 62.1566
ltoes 28.8548
1327
root 0.582799 17.7106 8.89192 22.9172 4.03153 -9.32313
lowerback 12.3649 4.21315 12.2844
upperback -4.58741 7.57373 -2.07056
thorax -10.1715 2.73312 -10.6987
lowerneck -16.2499 -13.16 -10.2059
upperneck 6.19723 -17.9798 18.8408
head 7.31014 -7.73564 5.41003
rclavicle 7.63333e-014 9.14409e-015
rhumerus 51.8749 15.5375 -27.1522
rradius 34.7008
rwrist 25.8598
rhand -3.75009 -24.231
rfingers 7.12502
rthumb 21.9939 -53.0005
lclavicle 7.63333e-014 9.14409e-015
lhumerus -23.2541 -76.3966 85.0482
lradius 107.038
lwrist 21.0351
lhand -20.4595 -19.0856
lfingers 7.12502
lthumb 5.89621 10.8124
rfemur -17.4689 33.3632 15.8188
rtibia 0.591656
rfoot -20.3809 -42.002
rtoes 18.3903
lfemur -17.4786 -57.6333 7.79194
ltibia -6.11328
lfoot -47.0281 62.1019
ltoes 28.9133
1328
root 0.581292 17.7112 8.8897 22.8974 4.00965 -9.37499
lowerback 12.3072 4.19754 12.3448
upperback -4.56394 7.55537 -2.04902
thorax -10.112 2.72796 -10.6959
lowerneck -16.2646 -13.1421 -10.1575
upperneck 6.24585 -17.9648 18.7927
head 7.3158 -7.72745 5.38916
rclavicle 3.03147e-014 -4.25399e-014
rhumerus 52.0623 16.1235 -26.4233
rradius 35.0291
rwrist 26.8138
rhand -4.66985 -23.9996
rfingers 7.12502
rthumb 21.1106 -52.8704
lclavicle 3.03147e-014 -4.25399e-014
lhumerus -22.5404 -76.2936 84.3761
lradius 107.103
lwrist 20.7006
lhand -20.0849 -18.5266
lfingers 7.12502
lthumb 6.25788 11.361
rfemur -17.4735 33.3116 15.9048
rtibia 0.63038
rfoot -20.2998 -41.9046
rtoes 18.3751
lfemur -17.3721 -57.6244 7.76149
ltibia -6.15431
lfoot -47.1968 62.11
ltoes 28.9894
1329
root 0.578641 17.7112 8.88941 22.9062 3.93065 -9.41006
lowerback 12.1295 4.22138 12.315
upperback -4.49917 7.5563 -2.00965
thorax -9.94086 2.75219 -10.6051
lowerneck -16.3208 -13.1367 -10.1127
upperneck 6.27268 -17.9496 18.6852
head 7.31443 -7.72221 5.348
rclavicle 3.08116e-015 -1.17283e-014
rhumerus 52.256 16.6522 -25.6746
rradius 35.4055
rwrist 27.433
rhand -5.33383 -23.8294
rfingers 7.12502
rthumb 20.4726 -52.77
lclavicle 3.08116e-015 -1.17283e-014
lhumerus -21.8288 -76.1171 83.7352
lradius 107.214
lwrist 21.0589
lhand -19.6432 -18.5402
lfingers 7.12502
lthumb 6.68427 11.3343
rfemur -17.5126 33.21 15.9505
rtibia 0.665339
rfoot -20.1217 -41.7438
rtoes 18.4207
lfemur -17.232 -57.5674 7.67545
ltibia -6.20244
lfoot -47.5462 62.001
ltoes 29.3354
1330
root 0.574535 17.7113 8.88986 22.9303 3.83593 -9.41876
lowerback 12.045 4.21964 12.2297
upperback -4.50326 7.5311 -1.98295
thorax -9.91489 2.74947 -10.5128
lowerneck -16.3384 -13.0957 -10.0843
upperneck 6.33628 -17.9013 18.6416
head 7.32306 -7.69754 5.33726
rclavicle -1.99779e-014 3.81667e-014
rhumerus 52.5039 17.2787 -24.9344
rradius 35.7839
rwrist 27.4819
rhand -5.77792 -23.8613
rfingers 7.12502
rthumb 20.0458 -52.8473
lclavicle -1.99779e-014 3.81667e-014
lhumerus -21.7913 -75.9358 83.6595
lradius 107.241
lwrist 21.3209
lhand -19.4254 -18.8514
lfingers 7.12502
lthumb 6.89451 11.0164
rfemur -17.5715 33.1849 15.9349
rtibia 0.696932
rfoot -20.0255 -41.6303
rtoes 18.4095
lfemur -17.1009 -57.4994 7.57201
ltibia -6.24873
lfoot -48.0457 61.7869
ltoes 29.9247
1331
root 0.569856 17.712 8.88961 22.9278 3.79942 -9.42399
lowerback 12.1228 4.17717 12.2032
upperback -4.57055 7.48548 -1.98819
thorax -10.0522 2.71255 -10.5142
lowerneck -16.3288 -13.0253 -9.96589
upperneck 6.41766 -17.826 18.5351
head 7.31338 -7.66282 5.29908
rclavicle -1.76918e-014 -1.55052e-014
rhumerus 52.6954 17.8709 -24.4363
rradius 35.9669
rwrist 27.6905
rhand -5.96168 -23.987
rfingers 7.12502
rthumb 19.8692 -52.9913
lclavicle -1.76918e-014 -1.55052e-014
lhumerus -22.0049 -75.8335 83.7592
lradius 107.288
lwrist 20.7701
lhand -19.4946 -18.4007
lfingers 7.12502
lthumb 6.82773 11.4693
rfemur -17.5805 33.2267 15.9385
rtibia 0.699789
rfoot -20.0342 -41.6168
rtoes 18.4596
lfemur -16.9843 -57.4889 7.49936
ltibia -6.28998
lfoot -48.4968 61.5997
ltoes 30.3779
1332
root 0.565391 17.7122 8.8886 22.8642 3.7772 -9.41612
lowerback 12.2061 4.15017 12.1994
upperback -4.5796 7.46053 -1.98856
thorax -10.1188 2.69348 -10.521
lowerneck -16.2972 -12.984 -9.9137
upperneck 6.42925 -17.7718 18.46
head 7.29038 -7.6424 5.27838
rclavicle 2.13694e-014 -4.37326e-015
rhumerus 52.7433 18.2157 -24.2519
rradius 35.962
rwrist 28.2817
rhand -5.98564 -23.9319
rfingers 7.12502
rthumb 19.8462 -52.9386
lclavicle 2.13694e-014 -4.37326e-015
lhumerus -22.1458 -75.8931 83.8318
lradius 107.129
lwrist 20.7171
lhand -19.6755 -19.1753
lfingers 7.12502
lthumb 6.65307 10.7002
rfemur -17.4866 33.2298 15.9943
rtibia 0.673767
rfoot -20.0619 -41.5857
rtoes 18.4887
lfemur -16.8092 -57.5241 7.35043
ltibia -6.28678
lfoot -48.8037 61.4741
ltoes 30.5893
1333
root 0.561483 17.7109 8.88753 22.8036 3.72375 -9.39415
lowerback 12.2137 4.16035 12.1926
upperback -4.54024 7.47038 -1.991
thorax -10.0759 2.70434 -10.5187
lowerneck -16.2614 -12.969 -9.94463
upperneck 6.39631 -17.7375 18.4372
head 7.26889 -7.63232 5.28366
rclavicle 3.67752e-014 6.16232e-015
rhumerus 52.69 18.3535 -24.2904
rradius 35.8783
rwrist 28.7247
rhand -6.02839 -23.9376
rfingers 7.12502
rthumb 19.8051 -52.9486
lclavicle 3.67752e-014 6.16232e-015
lhumerus -21.7103 -75.8706 83.4145
lradius 107.256
lwrist 20.4631
lhand -19.7087 -18.3694
lfingers 7.12502
lthumb 6.62108 11.5071
rfemur -17.3988 33.0826 16.0563
rtibia 0.660652
rfoot -19.8607 -41.4448
rtoes 18.1507
lfemur -16.6295 -57.5372 7.16535
ltibia -6.27803
lfoot -48.9541 61.4145
ltoes 30.7191
1334
root 0.558306 17.7093 8.88621 22.7871 3.67708 -9.39074
lowerback 12.1158 4.19864 12.1673
upperback -4.47812 7.50153 -1.96436
thorax -9.94483 2.73778 -10.4601
lowerneck -16.2552 -12.9514 -9.9488
upperneck 6.353 -17.6922 18.3588
head 7.23843 -7.619 5.26781
rclavicle -2.65378e-014 3.12092e-014
rhumerus 52.5797 18.3758 -24.4004
rradius 35.8393
rwrist 28.7601
rhand -6.10834 -24.0044
rfingers 7.12502
rthumb 19.7282 -53.0233
lclavicle -2.65378e-014 3.12092e-014
lhumerus -21.2865 -75.935 83.0583
lradius 107.061
lwrist 20.7036
lhand -19.9767 -19.1534
lfingers 7.12502
lthumb 6.36234 10.731
rfemur -17.3798 32.8485 16.111
rtibia 0.652443
rfoot -19.5606 -41.2493
rtoes 17.7863
lfemur -16.544 -57.5199 7.09244
ltibia -6.29815
lfoot -48.9277 61.449
ltoes 30.6464
